<mxfile host="app.diagrams.net" modified="2020-10-26T01:55:13.666Z" agent="5.0 (Windows)" etag="IU5-wfIIV3JvNgzekEmQ" version="13.8.2" type="github">
  <diagram id="LXaQTTn54qJ9uh0leEDC" name="Page-1">
    <mxGraphModel dx="1233" dy="1262" grid="1" gridSize="10" guides="1" tooltips="1" connect="1" arrows="1" fold="1" page="1" pageScale="1" pageWidth="1100" pageHeight="850" math="0" shadow="0">
      <root>
        <mxCell id="0" />
        <mxCell id="1" parent="0" />
        <mxCell id="uuuB2XCOFLg7MC-XlWBC-19" style="rounded=0;orthogonalLoop=1;jettySize=auto;html=1;strokeWidth=1;" edge="1" parent="1" source="uuuB2XCOFLg7MC-XlWBC-1">
          <mxGeometry relative="1" as="geometry">
            <mxPoint x="320" y="260" as="targetPoint" />
          </mxGeometry>
        </mxCell>
        <mxCell id="uuuB2XCOFLg7MC-XlWBC-1" value="" style="ellipse;whiteSpace=wrap;html=1;aspect=fixed;" vertex="1" parent="1">
          <mxGeometry x="200" y="240" width="40" height="40" as="geometry" />
        </mxCell>
        <mxCell id="uuuB2XCOFLg7MC-XlWBC-3" value="" style="endArrow=none;html=1;strokeWidth=3;" edge="1" parent="1">
          <mxGeometry width="50" height="50" relative="1" as="geometry">
            <mxPoint x="120" y="200" as="sourcePoint" />
            <mxPoint x="120" y="160" as="targetPoint" />
          </mxGeometry>
        </mxCell>
        <mxCell id="uuuB2XCOFLg7MC-XlWBC-4" value="" style="endArrow=none;html=1;strokeWidth=3;" edge="1" parent="1">
          <mxGeometry width="50" height="50" relative="1" as="geometry">
            <mxPoint x="120" y="360" as="sourcePoint" />
            <mxPoint x="120" y="320" as="targetPoint" />
          </mxGeometry>
        </mxCell>
        <mxCell id="uuuB2XCOFLg7MC-XlWBC-5" value="" style="endArrow=none;html=1;strokeWidth=3;" edge="1" parent="1">
          <mxGeometry width="50" height="50" relative="1" as="geometry">
            <mxPoint x="320" y="280" as="sourcePoint" />
            <mxPoint x="320" y="240" as="targetPoint" />
          </mxGeometry>
        </mxCell>
        <mxCell id="uuuB2XCOFLg7MC-XlWBC-20" style="edgeStyle=none;rounded=0;orthogonalLoop=1;jettySize=auto;html=1;strokeWidth=1;" edge="1" parent="1" source="uuuB2XCOFLg7MC-XlWBC-6">
          <mxGeometry relative="1" as="geometry">
            <mxPoint x="520" y="180" as="targetPoint" />
          </mxGeometry>
        </mxCell>
        <mxCell id="uuuB2XCOFLg7MC-XlWBC-21" style="edgeStyle=none;rounded=0;orthogonalLoop=1;jettySize=auto;html=1;strokeWidth=1;" edge="1" parent="1" source="uuuB2XCOFLg7MC-XlWBC-6">
          <mxGeometry relative="1" as="geometry">
            <mxPoint x="520" y="340" as="targetPoint" />
          </mxGeometry>
        </mxCell>
        <mxCell id="uuuB2XCOFLg7MC-XlWBC-6" value="" style="ellipse;whiteSpace=wrap;html=1;aspect=fixed;" vertex="1" parent="1">
          <mxGeometry x="400" y="240" width="40" height="40" as="geometry" />
        </mxCell>
        <mxCell id="uuuB2XCOFLg7MC-XlWBC-7" value="" style="endArrow=none;html=1;strokeWidth=3;" edge="1" parent="1">
          <mxGeometry width="50" height="50" relative="1" as="geometry">
            <mxPoint x="520" y="200" as="sourcePoint" />
            <mxPoint x="520" y="160" as="targetPoint" />
          </mxGeometry>
        </mxCell>
        <mxCell id="uuuB2XCOFLg7MC-XlWBC-8" value="" style="endArrow=none;html=1;strokeWidth=3;" edge="1" parent="1">
          <mxGeometry width="50" height="50" relative="1" as="geometry">
            <mxPoint x="520" y="360" as="sourcePoint" />
            <mxPoint x="520" y="320" as="targetPoint" />
          </mxGeometry>
        </mxCell>
        <mxCell id="uuuB2XCOFLg7MC-XlWBC-23" style="edgeStyle=none;rounded=0;orthogonalLoop=1;jettySize=auto;html=1;strokeWidth=1;" edge="1" parent="1" source="uuuB2XCOFLg7MC-XlWBC-9">
          <mxGeometry relative="1" as="geometry">
            <mxPoint x="520" y="180" as="targetPoint" />
          </mxGeometry>
        </mxCell>
        <mxCell id="uuuB2XCOFLg7MC-XlWBC-9" value="" style="ellipse;whiteSpace=wrap;html=1;aspect=fixed;" vertex="1" parent="1">
          <mxGeometry x="600" y="80" width="40" height="40" as="geometry" />
        </mxCell>
        <mxCell id="uuuB2XCOFLg7MC-XlWBC-10" value="" style="endArrow=none;html=1;strokeWidth=3;" edge="1" parent="1">
          <mxGeometry width="50" height="50" relative="1" as="geometry">
            <mxPoint x="720" y="200" as="sourcePoint" />
            <mxPoint x="720" y="160" as="targetPoint" />
          </mxGeometry>
        </mxCell>
        <mxCell id="uuuB2XCOFLg7MC-XlWBC-24" style="edgeStyle=none;rounded=0;orthogonalLoop=1;jettySize=auto;html=1;strokeWidth=1;" edge="1" parent="1">
          <mxGeometry relative="1" as="geometry">
            <mxPoint x="720" y="335" as="targetPoint" />
            <mxPoint x="640" y="335" as="sourcePoint" />
          </mxGeometry>
        </mxCell>
        <mxCell id="uuuB2XCOFLg7MC-XlWBC-11" value="" style="ellipse;whiteSpace=wrap;html=1;aspect=fixed;" vertex="1" parent="1">
          <mxGeometry x="600" y="320" width="40" height="40" as="geometry" />
        </mxCell>
        <mxCell id="uuuB2XCOFLg7MC-XlWBC-12" value="" style="endArrow=none;html=1;strokeWidth=3;" edge="1" parent="1">
          <mxGeometry width="50" height="50" relative="1" as="geometry">
            <mxPoint x="720" y="360" as="sourcePoint" />
            <mxPoint x="720" y="320" as="targetPoint" />
          </mxGeometry>
        </mxCell>
        <mxCell id="uuuB2XCOFLg7MC-XlWBC-22" style="edgeStyle=none;rounded=0;orthogonalLoop=1;jettySize=auto;html=1;strokeWidth=1;" edge="1" parent="1" source="uuuB2XCOFLg7MC-XlWBC-13">
          <mxGeometry relative="1" as="geometry">
            <mxPoint x="720" y="180" as="targetPoint" />
          </mxGeometry>
        </mxCell>
        <mxCell id="uuuB2XCOFLg7MC-XlWBC-13" value="" style="ellipse;whiteSpace=wrap;html=1;aspect=fixed;" vertex="1" parent="1">
          <mxGeometry x="600" y="160" width="40" height="40" as="geometry" />
        </mxCell>
        <mxCell id="uuuB2XCOFLg7MC-XlWBC-28" style="edgeStyle=none;rounded=0;orthogonalLoop=1;jettySize=auto;html=1;strokeWidth=1;" edge="1" parent="1" source="uuuB2XCOFLg7MC-XlWBC-15">
          <mxGeometry relative="1" as="geometry">
            <mxPoint x="920" y="340" as="targetPoint" />
          </mxGeometry>
        </mxCell>
        <mxCell id="uuuB2XCOFLg7MC-XlWBC-15" value="" style="ellipse;whiteSpace=wrap;html=1;aspect=fixed;" vertex="1" parent="1">
          <mxGeometry x="800" y="320" width="40" height="40" as="geometry" />
        </mxCell>
        <mxCell id="uuuB2XCOFLg7MC-XlWBC-16" value="" style="endArrow=none;html=1;strokeWidth=3;" edge="1" parent="1">
          <mxGeometry width="50" height="50" relative="1" as="geometry">
            <mxPoint x="920" y="359.9999999999999" as="sourcePoint" />
            <mxPoint x="920" y="319.9999999999999" as="targetPoint" />
          </mxGeometry>
        </mxCell>
        <mxCell id="uuuB2XCOFLg7MC-XlWBC-27" style="edgeStyle=none;rounded=0;orthogonalLoop=1;jettySize=auto;html=1;strokeWidth=1;" edge="1" parent="1" source="uuuB2XCOFLg7MC-XlWBC-17">
          <mxGeometry relative="1" as="geometry">
            <mxPoint x="920" y="180" as="targetPoint" />
          </mxGeometry>
        </mxCell>
        <mxCell id="uuuB2XCOFLg7MC-XlWBC-17" value="" style="ellipse;whiteSpace=wrap;html=1;aspect=fixed;" vertex="1" parent="1">
          <mxGeometry x="800" y="160" width="40" height="40" as="geometry" />
        </mxCell>
        <mxCell id="uuuB2XCOFLg7MC-XlWBC-18" value="" style="endArrow=none;html=1;strokeWidth=3;" edge="1" parent="1">
          <mxGeometry width="50" height="50" relative="1" as="geometry">
            <mxPoint x="920" y="199.9999999999999" as="sourcePoint" />
            <mxPoint x="920" y="159.9999999999999" as="targetPoint" />
          </mxGeometry>
        </mxCell>
        <mxCell id="uuuB2XCOFLg7MC-XlWBC-29" style="edgeStyle=none;rounded=0;orthogonalLoop=1;jettySize=auto;html=1;strokeWidth=1;" edge="1" parent="1">
          <mxGeometry relative="1" as="geometry">
            <mxPoint x="600" y="339.6599999999999" as="targetPoint" />
            <mxPoint x="520" y="339.6599999999999" as="sourcePoint" />
          </mxGeometry>
        </mxCell>
        <mxCell id="uuuB2XCOFLg7MC-XlWBC-30" style="edgeStyle=none;rounded=0;orthogonalLoop=1;jettySize=auto;html=1;strokeWidth=1;" edge="1" parent="1">
          <mxGeometry relative="1" as="geometry">
            <mxPoint x="600" y="179.65999999999985" as="targetPoint" />
            <mxPoint x="520" y="179.65999999999985" as="sourcePoint" />
          </mxGeometry>
        </mxCell>
        <mxCell id="uuuB2XCOFLg7MC-XlWBC-31" style="edgeStyle=none;rounded=0;orthogonalLoop=1;jettySize=auto;html=1;strokeWidth=1;" edge="1" parent="1">
          <mxGeometry relative="1" as="geometry">
            <mxPoint x="800" y="179.65999999999985" as="targetPoint" />
            <mxPoint x="720" y="179.65999999999985" as="sourcePoint" />
          </mxGeometry>
        </mxCell>
        <mxCell id="uuuB2XCOFLg7MC-XlWBC-32" style="edgeStyle=none;rounded=0;orthogonalLoop=1;jettySize=auto;html=1;strokeWidth=1;" edge="1" parent="1">
          <mxGeometry relative="1" as="geometry">
            <mxPoint x="800" y="339.65999999999985" as="targetPoint" />
            <mxPoint x="720" y="339.65999999999985" as="sourcePoint" />
          </mxGeometry>
        </mxCell>
        <mxCell id="uuuB2XCOFLg7MC-XlWBC-33" style="rounded=0;orthogonalLoop=1;jettySize=auto;html=1;strokeWidth=1;" edge="1" parent="1" target="uuuB2XCOFLg7MC-XlWBC-1">
          <mxGeometry relative="1" as="geometry">
            <mxPoint x="329.9999999999999" y="270.0000000000001" as="targetPoint" />
            <mxPoint x="120" y="180" as="sourcePoint" />
          </mxGeometry>
        </mxCell>
        <mxCell id="uuuB2XCOFLg7MC-XlWBC-34" style="rounded=0;orthogonalLoop=1;jettySize=auto;html=1;strokeWidth=1;" edge="1" parent="1" target="uuuB2XCOFLg7MC-XlWBC-1">
          <mxGeometry relative="1" as="geometry">
            <mxPoint x="214.38262381113907" y="257.50609904891144" as="targetPoint" />
            <mxPoint x="120" y="340" as="sourcePoint" />
          </mxGeometry>
        </mxCell>
        <mxCell id="uuuB2XCOFLg7MC-XlWBC-35" style="rounded=0;orthogonalLoop=1;jettySize=auto;html=1;strokeWidth=1;" edge="1" parent="1" target="uuuB2XCOFLg7MC-XlWBC-6">
          <mxGeometry relative="1" as="geometry">
            <mxPoint x="329.9999999999999" y="270.0000000000001" as="targetPoint" />
            <mxPoint x="320" y="260" as="sourcePoint" />
          </mxGeometry>
        </mxCell>
        <mxCell id="uuuB2XCOFLg7MC-XlWBC-36" style="edgeStyle=none;rounded=0;orthogonalLoop=1;jettySize=auto;html=1;strokeWidth=1;" edge="1" parent="1" target="uuuB2XCOFLg7MC-XlWBC-9">
          <mxGeometry relative="1" as="geometry">
            <mxPoint x="810" y="189.65999999999985" as="targetPoint" />
            <mxPoint x="720" y="180" as="sourcePoint" />
          </mxGeometry>
        </mxCell>
        <mxCell id="uuuB2XCOFLg7MC-XlWBC-38" value="&lt;b&gt;&lt;font style=&quot;font-size: 14px&quot;&gt;1&lt;/font&gt;&lt;/b&gt;" style="text;html=1;strokeColor=none;fillColor=none;align=center;verticalAlign=middle;whiteSpace=wrap;rounded=0;" vertex="1" parent="1">
          <mxGeometry x="600" y="90" width="40" height="20" as="geometry" />
        </mxCell>
        <mxCell id="uuuB2XCOFLg7MC-XlWBC-43" style="edgeStyle=none;rounded=0;orthogonalLoop=1;jettySize=auto;html=1;strokeWidth=1;fontSize=14;" edge="1" parent="1" source="uuuB2XCOFLg7MC-XlWBC-42">
          <mxGeometry relative="1" as="geometry">
            <mxPoint x="319.9999999999999" y="260.0000000000001" as="targetPoint" />
          </mxGeometry>
        </mxCell>
        <mxCell id="uuuB2XCOFLg7MC-XlWBC-42" value="" style="ellipse;whiteSpace=wrap;html=1;aspect=fixed;" vertex="1" parent="1">
          <mxGeometry x="400" y="320" width="40" height="40" as="geometry" />
        </mxCell>
        <mxCell id="uuuB2XCOFLg7MC-XlWBC-44" style="edgeStyle=none;rounded=0;orthogonalLoop=1;jettySize=auto;html=1;strokeWidth=1;" edge="1" parent="1" target="uuuB2XCOFLg7MC-XlWBC-42">
          <mxGeometry relative="1" as="geometry">
            <mxPoint x="530" y="190" as="targetPoint" />
            <mxPoint x="520" y="180" as="sourcePoint" />
          </mxGeometry>
        </mxCell>
        <mxCell id="uuuB2XCOFLg7MC-XlWBC-45" style="edgeStyle=none;rounded=0;orthogonalLoop=1;jettySize=auto;html=1;strokeWidth=1;" edge="1" parent="1" target="uuuB2XCOFLg7MC-XlWBC-42">
          <mxGeometry relative="1" as="geometry">
            <mxPoint x="610" y="349.65999999999974" as="targetPoint" />
            <mxPoint x="520" y="340" as="sourcePoint" />
          </mxGeometry>
        </mxCell>
        <mxCell id="uuuB2XCOFLg7MC-XlWBC-46" value="1" style="text;html=1;strokeColor=none;fillColor=none;align=center;verticalAlign=middle;whiteSpace=wrap;rounded=0;fontStyle=1;fontSize=14;" vertex="1" parent="1">
          <mxGeometry x="400" y="330" width="40" height="20" as="geometry" />
        </mxCell>
        <mxCell id="uuuB2XCOFLg7MC-XlWBC-50" style="edgeStyle=none;rounded=0;orthogonalLoop=1;jettySize=auto;html=1;strokeWidth=1;" edge="1" parent="1">
          <mxGeometry relative="1" as="geometry">
            <mxPoint x="720" y="325" as="targetPoint" />
            <mxPoint x="633.0000000000001" y="325" as="sourcePoint" />
          </mxGeometry>
        </mxCell>
        <mxCell id="uuuB2XCOFLg7MC-XlWBC-51" style="edgeStyle=none;rounded=0;orthogonalLoop=1;jettySize=auto;html=1;strokeWidth=1;" edge="1" parent="1">
          <mxGeometry relative="1" as="geometry">
            <mxPoint x="720" y="345" as="targetPoint" />
            <mxPoint x="640.0000000000001" y="345" as="sourcePoint" />
          </mxGeometry>
        </mxCell>
        <mxCell id="uuuB2XCOFLg7MC-XlWBC-52" style="edgeStyle=none;rounded=0;orthogonalLoop=1;jettySize=auto;html=1;strokeWidth=1;" edge="1" parent="1">
          <mxGeometry relative="1" as="geometry">
            <mxPoint x="720" y="355" as="targetPoint" />
            <mxPoint x="633.0000000000001" y="354.84" as="sourcePoint" />
          </mxGeometry>
        </mxCell>
        <mxCell id="uuuB2XCOFLg7MC-XlWBC-53" value="&lt;div&gt;Llega pedido&lt;/div&gt;&lt;div&gt;por línea 1&lt;br&gt;&lt;/div&gt;" style="text;html=1;strokeColor=none;fillColor=none;align=center;verticalAlign=middle;whiteSpace=wrap;rounded=0;fontSize=11;" vertex="1" parent="1">
          <mxGeometry x="80" y="120" width="80" height="40" as="geometry" />
        </mxCell>
        <mxCell id="uuuB2XCOFLg7MC-XlWBC-54" value="&lt;div&gt;Llega pedido&lt;/div&gt;&lt;div&gt;por línea 2&lt;br&gt;&lt;/div&gt;" style="text;html=1;strokeColor=none;fillColor=none;align=center;verticalAlign=middle;whiteSpace=wrap;rounded=0;fontSize=11;" vertex="1" parent="1">
          <mxGeometry x="80" y="360" width="80" height="40" as="geometry" />
        </mxCell>
        <mxCell id="uuuB2XCOFLg7MC-XlWBC-55" value="Pedidos esperando ser procesados" style="text;html=1;strokeColor=none;fillColor=none;align=left;verticalAlign=middle;whiteSpace=wrap;rounded=0;fontSize=11;" vertex="1" parent="1">
          <mxGeometry x="200" y="280" width="100" height="40" as="geometry" />
        </mxCell>
        <mxCell id="uuuB2XCOFLg7MC-XlWBC-56" value="&lt;div&gt;Pedido pasa&lt;/div&gt;&lt;div&gt;a puesto&lt;br&gt;&lt;/div&gt;" style="text;html=1;strokeColor=none;fillColor=none;align=center;verticalAlign=middle;whiteSpace=wrap;rounded=0;fontSize=11;" vertex="1" parent="1">
          <mxGeometry x="270" y="200" width="100" height="40" as="geometry" />
        </mxCell>
        <mxCell id="uuuB2XCOFLg7MC-XlWBC-57" value="Puesto libre" style="text;html=1;strokeColor=none;fillColor=none;align=right;verticalAlign=middle;whiteSpace=wrap;rounded=0;fontSize=11;" vertex="1" parent="1">
          <mxGeometry x="310" y="320" width="80" height="40" as="geometry" />
        </mxCell>
        <mxCell id="uuuB2XCOFLg7MC-XlWBC-58" value="&lt;div&gt;Pedido en&lt;/div&gt;&lt;div&gt;proceso&lt;br&gt;&lt;/div&gt;" style="text;html=1;strokeColor=none;fillColor=none;align=center;verticalAlign=middle;whiteSpace=wrap;rounded=0;fontSize=11;" vertex="1" parent="1">
          <mxGeometry x="370" y="200" width="100" height="40" as="geometry" />
        </mxCell>
        <mxCell id="uuuB2XCOFLg7MC-XlWBC-59" value="&lt;div&gt;Pedido derivado&lt;/div&gt;&lt;div&gt;a canal 1&lt;br&gt;&lt;/div&gt;" style="text;html=1;strokeColor=none;fillColor=none;align=center;verticalAlign=middle;whiteSpace=wrap;rounded=0;fontSize=11;" vertex="1" parent="1">
          <mxGeometry x="470" y="120" width="100" height="40" as="geometry" />
        </mxCell>
        <mxCell id="uuuB2XCOFLg7MC-XlWBC-60" value="&lt;div&gt;Pedido derivado&lt;/div&gt;&lt;div&gt;a canal 2&lt;br&gt;&lt;/div&gt;" style="text;html=1;strokeColor=none;fillColor=none;align=center;verticalAlign=middle;whiteSpace=wrap;rounded=0;fontSize=11;" vertex="1" parent="1">
          <mxGeometry x="470" y="360" width="100" height="40" as="geometry" />
        </mxCell>
        <mxCell id="uuuB2XCOFLg7MC-XlWBC-61" value="Sellando pedido" style="text;html=1;strokeColor=none;fillColor=none;align=center;verticalAlign=middle;whiteSpace=wrap;rounded=0;fontSize=11;" vertex="1" parent="1">
          <mxGeometry x="570" y="200" width="100" height="40" as="geometry" />
        </mxCell>
        <mxCell id="uuuB2XCOFLg7MC-XlWBC-62" value="Empleado libre" style="text;html=1;strokeColor=none;fillColor=none;align=left;verticalAlign=middle;whiteSpace=wrap;rounded=0;fontSize=11;" vertex="1" parent="1">
          <mxGeometry x="650" y="80" width="100" height="40" as="geometry" />
        </mxCell>
        <mxCell id="uuuB2XCOFLg7MC-XlWBC-63" value="Pedidosen contenedor" style="text;html=1;strokeColor=none;fillColor=none;align=center;verticalAlign=middle;whiteSpace=wrap;rounded=0;fontSize=11;" vertex="1" parent="1">
          <mxGeometry x="570" y="360" width="100" height="40" as="geometry" />
        </mxCell>
        <mxCell id="uuuB2XCOFLg7MC-XlWBC-64" value="&lt;div&gt;Pedidos enviados&lt;/div&gt;&lt;div&gt;a logística&lt;br&gt;&lt;/div&gt;" style="text;html=1;strokeColor=none;fillColor=none;align=center;verticalAlign=middle;whiteSpace=wrap;rounded=0;fontSize=11;" vertex="1" parent="1">
          <mxGeometry x="670" y="360" width="100" height="40" as="geometry" />
        </mxCell>
        <mxCell id="uuuB2XCOFLg7MC-XlWBC-65" value="&lt;div&gt;Pedidos en&lt;/div&gt;&lt;div&gt;logística&lt;br&gt;&lt;/div&gt;" style="text;html=1;strokeColor=none;fillColor=none;align=center;verticalAlign=middle;whiteSpace=wrap;rounded=0;fontSize=11;" vertex="1" parent="1">
          <mxGeometry x="770" y="360" width="100" height="40" as="geometry" />
        </mxCell>
        <mxCell id="uuuB2XCOFLg7MC-XlWBC-66" value="&lt;div&gt;Pedidos despachados&lt;/div&gt;" style="text;html=1;strokeColor=none;fillColor=none;align=center;verticalAlign=middle;whiteSpace=wrap;rounded=0;fontSize=11;" vertex="1" parent="1">
          <mxGeometry x="870" y="360" width="100" height="40" as="geometry" />
        </mxCell>
        <mxCell id="uuuB2XCOFLg7MC-XlWBC-67" value="&lt;div&gt;Pedidos&lt;/div&gt;&lt;div&gt;retirados&lt;/div&gt;" style="text;html=1;strokeColor=none;fillColor=none;align=center;verticalAlign=middle;whiteSpace=wrap;rounded=0;fontSize=11;" vertex="1" parent="1">
          <mxGeometry x="870" y="120" width="100" height="40" as="geometry" />
        </mxCell>
        <mxCell id="uuuB2XCOFLg7MC-XlWBC-69" value="&lt;div&gt;Pedidos en depósito de descartados&lt;br&gt;&lt;/div&gt;" style="text;html=1;strokeColor=none;fillColor=none;align=center;verticalAlign=middle;whiteSpace=wrap;rounded=0;fontSize=11;" vertex="1" parent="1">
          <mxGeometry x="770" y="120" width="100" height="40" as="geometry" />
        </mxCell>
        <mxCell id="uuuB2XCOFLg7MC-XlWBC-70" value="&lt;div&gt;Pedido enviado&lt;/div&gt;&lt;div&gt;a depósito&lt;/div&gt;&lt;div&gt;de descartados&lt;br&gt;&lt;/div&gt;" style="text;html=1;strokeColor=none;fillColor=none;align=center;verticalAlign=middle;whiteSpace=wrap;rounded=0;fontSize=11;" vertex="1" parent="1">
          <mxGeometry x="670" y="200" width="100" height="40" as="geometry" />
        </mxCell>
      </root>
    </mxGraphModel>
  </diagram>
</mxfile>
